<mxfile host="app.diagrams.net" agent="Mozilla/5.0 (Macintosh; Intel Mac OS X 10_15_7) AppleWebKit/537.36 (KHTML, like Gecko) Chrome/132.0.0.0 Safari/537.36" version="26.0.11">
  <diagram name="Page-1" id="WiJ3kC0UEiXNwqZvYqHo">
    <mxGraphModel>
      <root>
        <mxCell id="0" />
        <mxCell id="1" parent="0" />
        <mxCell id="2" value="Gen AI Language Portal App" style="whiteSpace=wrap;strokeWidth=2;verticalAlign=top;" vertex="1" parent="1">
          <mxGeometry x="8" y="8" width="1918" height="1882" as="geometry" />
        </mxCell>
        <mxCell id="3" value="Deployment" style="whiteSpace=wrap;strokeWidth=2;verticalAlign=top;" vertex="1" parent="2">
          <mxGeometry x="43" y="559" width="604" height="781" as="geometry" />
        </mxCell>
        <mxCell id="4" value="CD/CI Pipeline" style="whiteSpace=wrap;strokeWidth=2;verticalAlign=top;" vertex="1" parent="3">
          <mxGeometry x="58" y="43" width="504" height="203" as="geometry" />
        </mxCell>
        <mxCell id="5" value="GitHub Actions" style="ellipse;aspect=fixed;strokeWidth=2;whiteSpace=wrap;" vertex="1" parent="4">
          <mxGeometry x="71" y="49" width="121" height="121" as="geometry" />
        </mxCell>
        <mxCell id="6" value="Docker Compose" style="ellipse;aspect=fixed;strokeWidth=2;whiteSpace=wrap;" vertex="1" parent="4">
          <mxGeometry x="316" y="43" width="133" height="133" as="geometry" />
        </mxCell>
        <mxCell id="7" value="" style="curved=1;startArrow=none;endArrow=block;exitX=0.99;exitY=0.5;entryX=0;entryY=0.5;" edge="1" parent="4" source="5" target="6">
          <mxGeometry relative="1" as="geometry">
            <Array as="points" />
          </mxGeometry>
        </mxCell>
        <mxCell id="8" value="Cloud Services" style="whiteSpace=wrap;strokeWidth=2;verticalAlign=top;" vertex="1" parent="3">
          <mxGeometry x="222" y="296" width="175" height="458" as="geometry" />
        </mxCell>
        <mxCell id="9" value="AWS Lambda" style="ellipse;aspect=fixed;strokeWidth=2;whiteSpace=wrap;" vertex="1" parent="8">
          <mxGeometry x="43" y="71" width="105" height="105" as="geometry" />
        </mxCell>
        <mxCell id="10" value="Amazon RDS" style="ellipse;aspect=fixed;strokeWidth=2;whiteSpace=wrap;" vertex="1" parent="8">
          <mxGeometry x="44" y="301" width="103" height="103" as="geometry" />
        </mxCell>
        <mxCell id="11" value="" style="curved=1;startArrow=none;endArrow=block;exitX=0.5;exitY=1;entryX=0.5;entryY=0;" edge="1" parent="8" source="9" target="10">
          <mxGeometry relative="1" as="geometry">
            <Array as="points" />
          </mxGeometry>
        </mxCell>
        <mxCell id="12" value="Backend" style="whiteSpace=wrap;strokeWidth=2;verticalAlign=top;" vertex="1" parent="2">
          <mxGeometry x="697" y="227" width="615" height="1443" as="geometry" />
        </mxCell>
        <mxCell id="13" value="Authentication" style="whiteSpace=wrap;strokeWidth=2;verticalAlign=top;" vertex="1" parent="12">
          <mxGeometry x="58" y="43" width="515" height="212" as="geometry" />
        </mxCell>
        <mxCell id="14" value="OAuth Provider" style="ellipse;aspect=fixed;strokeWidth=2;whiteSpace=wrap;" vertex="1" parent="13">
          <mxGeometry x="71" y="53" width="123" height="123" as="geometry" />
        </mxCell>
        <mxCell id="15" value="User Management" style="ellipse;aspect=fixed;strokeWidth=2;whiteSpace=wrap;" vertex="1" parent="13">
          <mxGeometry x="319" y="43" width="142" height="142" as="geometry" />
        </mxCell>
        <mxCell id="16" value="" style="curved=1;startArrow=none;endArrow=block;exitX=1;exitY=0.5;entryX=0;entryY=0.5;" edge="1" parent="13" source="14" target="15">
          <mxGeometry relative="1" as="geometry">
            <Array as="points" />
          </mxGeometry>
        </mxCell>
        <mxCell id="17" value="Database" style="whiteSpace=wrap;strokeWidth=2;verticalAlign=top;" vertex="1" parent="12">
          <mxGeometry x="206" y="305" width="219" height="504" as="geometry" />
        </mxCell>
        <mxCell id="18" value="User Profiles" style="ellipse;aspect=fixed;strokeWidth=2;whiteSpace=wrap;" vertex="1" parent="17">
          <mxGeometry x="65" y="71" width="105" height="105" as="geometry" />
        </mxCell>
        <mxCell id="19" value="Translation History" style="ellipse;aspect=fixed;strokeWidth=2;whiteSpace=wrap;" vertex="1" parent="17">
          <mxGeometry x="43" y="300" width="149" height="149" as="geometry" />
        </mxCell>
        <mxCell id="20" value="" style="curved=1;startArrow=none;endArrow=block;exitX=0.5;exitY=1;entryX=0.5;entryY=0;" edge="1" parent="17" source="18" target="19">
          <mxGeometry relative="1" as="geometry">
            <Array as="points" />
          </mxGeometry>
        </mxCell>
        <mxCell id="21" value="Serverless Functions" style="whiteSpace=wrap;strokeWidth=2;verticalAlign=top;" vertex="1" parent="12">
          <mxGeometry x="202" y="859" width="227" height="557" as="geometry" />
        </mxCell>
        <mxCell id="22" value="Translation Service" style="ellipse;aspect=fixed;strokeWidth=2;whiteSpace=wrap;" vertex="1" parent="21">
          <mxGeometry x="46" y="71" width="150" height="150" as="geometry" />
        </mxCell>
        <mxCell id="23" value="Language Detection" style="ellipse;aspect=fixed;strokeWidth=2;whiteSpace=wrap;" vertex="1" parent="21">
          <mxGeometry x="43" y="346" width="157" height="157" as="geometry" />
        </mxCell>
        <mxCell id="24" value="" style="curved=1;startArrow=none;endArrow=block;exitX=0.5;exitY=1;entryX=0.5;entryY=0;" edge="1" parent="21" source="22" target="23">
          <mxGeometry relative="1" as="geometry">
            <Array as="points" />
          </mxGeometry>
        </mxCell>
        <mxCell id="25" value="Frontend" style="whiteSpace=wrap;strokeWidth=2;verticalAlign=top;" vertex="1" parent="2">
          <mxGeometry x="1363" y="46" width="528" height="1807" as="geometry" />
        </mxCell>
        <mxCell id="26" value="Network Communication" style="whiteSpace=wrap;strokeWidth=2;verticalAlign=top;" vertex="1" parent="25">
          <mxGeometry x="58" y="43" width="428" height="163" as="geometry" />
        </mxCell>
        <mxCell id="27" value="API Client" style="ellipse;aspect=fixed;strokeWidth=2;whiteSpace=wrap;" vertex="1" parent="26">
          <mxGeometry x="71" y="47" width="85" height="85" as="geometry" />
        </mxCell>
        <mxCell id="28" value="WebSocket" style="ellipse;aspect=fixed;strokeWidth=2;whiteSpace=wrap;" vertex="1" parent="26">
          <mxGeometry x="281" y="43" width="93" height="93" as="geometry" />
        </mxCell>
        <mxCell id="29" value="" style="curved=1;startArrow=none;endArrow=block;exitX=1;exitY=0.5;entryX=0;entryY=0.5;" edge="1" parent="26" source="27" target="28">
          <mxGeometry relative="1" as="geometry">
            <Array as="points" />
          </mxGeometry>
        </mxCell>
        <mxCell id="30" value="State Management" style="whiteSpace=wrap;strokeWidth=2;verticalAlign=top;" vertex="1" parent="25">
          <mxGeometry x="163" y="256" width="219" height="735" as="geometry" />
        </mxCell>
        <mxCell id="31" value="User Profile" style="ellipse;aspect=fixed;strokeWidth=2;whiteSpace=wrap;" vertex="1" parent="30">
          <mxGeometry x="68" y="71" width="99" height="99" as="geometry" />
        </mxCell>
        <mxCell id="32" value="Search Parameters" style="ellipse;aspect=fixed;strokeWidth=2;whiteSpace=wrap;" vertex="1" parent="30">
          <mxGeometry x="43" y="294" width="149" height="149" as="geometry" />
        </mxCell>
        <mxCell id="33" value="Loading State" style="ellipse;aspect=fixed;strokeWidth=2;whiteSpace=wrap;" vertex="1" parent="30">
          <mxGeometry x="61" y="568" width="113" height="113" as="geometry" />
        </mxCell>
        <mxCell id="34" value="" style="curved=1;startArrow=none;endArrow=block;exitX=0.5;exitY=0.99;entryX=0.5;entryY=0;" edge="1" parent="30" source="31" target="32">
          <mxGeometry relative="1" as="geometry">
            <Array as="points" />
          </mxGeometry>
        </mxCell>
        <mxCell id="35" value="" style="curved=1;startArrow=none;endArrow=block;exitX=0.5;exitY=1;entryX=0.5;entryY=0;" edge="1" parent="30" source="32" target="33">
          <mxGeometry relative="1" as="geometry">
            <Array as="points" />
          </mxGeometry>
        </mxCell>
        <mxCell id="36" value="UI Components" style="whiteSpace=wrap;strokeWidth=2;verticalAlign=top;" vertex="1" parent="25">
          <mxGeometry x="164" y="1041" width="216" height="740" as="geometry" />
        </mxCell>
        <mxCell id="37" value="Language Selector" style="ellipse;aspect=fixed;strokeWidth=2;whiteSpace=wrap;" vertex="1" parent="36">
          <mxGeometry x="43" y="71" width="146" height="146" as="geometry" />
        </mxCell>
        <mxCell id="38" value="Search Bar" style="ellipse;aspect=fixed;strokeWidth=2;whiteSpace=wrap;" vertex="1" parent="36">
          <mxGeometry x="70" y="341" width="91" height="91" as="geometry" />
        </mxCell>
        <mxCell id="39" value="Content Display" style="ellipse;aspect=fixed;strokeWidth=2;whiteSpace=wrap;" vertex="1" parent="36">
          <mxGeometry x="52" y="558" width="128" height="128" as="geometry" />
        </mxCell>
        <mxCell id="40" value="" style="curved=1;startArrow=none;endArrow=block;exitX=0.5;exitY=1;entryX=0.51;entryY=0;" edge="1" parent="36" source="37" target="38">
          <mxGeometry relative="1" as="geometry">
            <Array as="points" />
          </mxGeometry>
        </mxCell>
        <mxCell id="41" value="" style="curved=1;startArrow=none;endArrow=block;exitX=0.51;exitY=1.01;entryX=0.5;entryY=0;" edge="1" parent="36" source="38" target="39">
          <mxGeometry relative="1" as="geometry">
            <Array as="points" />
          </mxGeometry>
        </mxCell>
      </root>
    </mxGraphModel>
  </diagram>
</mxfile>
